<!-- Generator: Adobe Illustrator 19.0.0, SVG Export Plug-In  -->
<svg version="1.1"
	 xmlns="http://www.w3.org/2000/svg" xmlns:xlink="http://www.w3.org/1999/xlink" xmlns:a="http://ns.adobe.com/AdobeSVGViewerExtensions/3.0/"
	 x="0px" y="0px" width="66.3527px" height="64.9087px" viewBox="0 0 66.3527 64.9087"
	 style="enable-background:new 0 0 66.3527 64.9087;" xml:space="preserve">
<style type="text/css">
	.st0{fill:#FFFFFF;}
</style>
<defs>
</defs>
<path id="XMLID_15_" class="st0" d="M55.7602,1.313l-5.3033,5.3033l-4.9497-4.9497c-0.2964-0.2964-0.9448-0.4695-1.4142,0
	l-9.8995,9.8995c-0.3702,0.3702-0.3702,1.0439,0,1.4142l13.435,13.4351L37.0219,37.0219L26.4153,47.6284l-13.435-13.435
	c-0.3703-0.3702-1.0439-0.3702-1.4142,0l-9.8995,9.8995c-0.4694,0.4694-0.2964,1.1177,0,1.4142l4.9497,4.9498L1.313,55.7602
	c-1.7506,1.7506-1.7506,4.6322,0,6.3828l2.7469,2.7657h2.8284l-4.1611-4.1799c-0.9917-0.9917-0.9917-2.5532,0-3.5449l5.3033-5.2892
	l12.9999,13.014h2.8285L3.7879,44.8188l8.4852-8.4947l26.8701,26.8842l-1.6862,1.7003h2.8285l0.9791-0.9979
	c0.3702-0.3703,0.3702-1.0534,0-1.4237l-13.435-13.4397l10.6066-10.609l10.6066-10.6078l13.435,13.4345
	c0.3703,0.3702,0.9913,0.3699,1.3616-0.0003l2.5134-2.5663V35.87l-3.2205,3.2731L36.2884,12.2731l8.4458-8.4853l21.6184,21.6579
	v-2.8284L51.8185,8.0305l5.3296-5.3033c0.9917-0.9916,2.5044-0.9916,3.4961,0l5.7085,5.748V5.6467L62.0716,1.313
	C60.321-0.4377,57.5108-0.4377,55.7602,1.313z"/>
</svg>
