<!-- Generator: Adobe Illustrator 19.0.0, SVG Export Plug-In  -->
<svg version="1.1"
	 xmlns="http://www.w3.org/2000/svg" xmlns:xlink="http://www.w3.org/1999/xlink" xmlns:a="http://ns.adobe.com/AdobeSVGViewerExtensions/3.0/"
	 x="0px" y="0px" width="47.5566px" height="66.9456px" viewBox="0 0 47.5566 66.9456"
	 style="enable-background:new 0 0 47.5566 66.9456;" xml:space="preserve">
<style type="text/css">
	.st0{fill:#FFFFFF;}
</style>
<defs>
</defs>
<path id="XMLID_15_" class="st0" d="M47.5566,39.4772L37.3056,28.7987l10.2509-10.2226v-2.7957l-4.603,4.6442
	c0,0-16.0142-16.9177-16.4144-17.3053c-3.0571-2.9611-7.6861-4.0145-11.86-2.2846c-4.1739,1.7298-6.7034,5.758-6.7697,10.0135
	c-0.0087,0.5571,0.6238,23.8618,0.6238,23.8618l-7.5369,0.0121c-0.2021-0.0031-0.4038,0.0569-0.5716,0.1696
	c-0.2708,0.1902-0.4356,0.5407-0.4243,0.8714c0,0,0.3792,18.1824,0.6561,31.1824h1.9927L2.0207,36.719l16.3943-0.0195
	l0.6292,30.2462h1.9995c-0.2669-13-0.6508-31.2782-0.6508-31.2782c-0.0164-0.5164-0.4937-0.9832-1.0102-0.9777l-8.8558,0.0121
	l-0.5034-17.2149c2.9239,4.0051,8.3136,5.6529,13.0916,3.6728s7.4212-6.9589,6.6548-11.8581L41.59,21.8238l-6.2715,6.2524
	c-0.369,0.3615-0.4353,1.0224-0.0817,1.3989c0,0,6.3198,6.0573,12.3198,12.8917V39.4772z M22.3495,19.3109
	c-4.6027,1.9075-9.8524-0.2658-11.7599-4.8685s0.2658-9.8525,4.8685-11.76s9.8524,0.2658,11.7599,4.8685
	S26.9523,17.4034,22.3495,19.3109z"/>
</svg>
