<!-- Generator: Adobe Illustrator 19.0.0, SVG Export Plug-In  -->
<svg version="1.1"
	 xmlns="http://www.w3.org/2000/svg" xmlns:xlink="http://www.w3.org/1999/xlink" xmlns:a="http://ns.adobe.com/AdobeSVGViewerExtensions/3.0/"
	 x="0px" y="0px" width="47.6546px" height="57px" viewBox="0 0 47.6546 57" style="enable-background:new 0 0 47.6546 57;"
	 xml:space="preserve">
<style type="text/css">
	.st0{fill:#FFFFFF;}
</style>
<defs>
</defs>
<g id="XMLID_15_">
	<path id="XMLID_19_" class="st0" d="M1.7616,41.0186c0-17.9773,14.5106-32.5522,32.4667-32.6415
		c0.0549,0.0052,0.1104,0.0005,0.1653-0.0047c4.7244,0,9.2087,1.0055,13.2609,2.8088V9.2679c-3.8259-1.5977-8-2.5256-12-2.6366V1
		h4.0308c0.4886,0,0.882-0.0114,0.882-0.5c0-0.4886-0.3934-0.5-0.882-0.5H29.102c-0.4886,0-0.882,0.0114-0.882,0.5
		c0,0.4886,0.3934,0.5,0.882,0.5h4.5526v5.6313c-9,0.2238-16.8951,3.7568-22.8643,9.4258L6.3725,11.675
		c-0.1628-0.1719-0.415-0.2739-0.6518-0.2756c-0.6952,0.0053-1.1149,1.0324-0.6153,1.5159l4.3777,4.3822
		C3.6089,23.4688,0,31.8327,0,41.0186C0,46.7805,1.4242,52,3.932,57H5.93C3.2795,52,1.7616,46.8202,1.7616,41.0186z"/>
	<path id="XMLID_16_" class="st0" d="M34.3937,33.0622c-4.3734,0-7.9375,3.5641-7.9375,7.9376c0,4.3732,3.5641,7.9375,7.9375,7.9375
		c4.3734,0,7.9375-3.5643,7.9375-7.9375c0-1.872-0.6463-3.6016-1.7363-4.961l7.0598-7.0598v-2.508l-8.3275,8.3275
		C37.9704,33.7167,36.2579,33.0622,34.3937,33.0622z M34.3937,47.1733c-3.4201,0-6.1736-2.7537-6.1736-6.1736
		c0-3.4202,2.7535-6.1736,6.1736-6.1736c3.42,0,6.1736,2.7534,6.1736,6.1736C40.5673,44.4197,37.8137,47.1733,34.3937,47.1733z"/>
</g>
</svg>
