<!-- Generator: Adobe Illustrator 19.0.0, SVG Export Plug-In  -->
<svg version="1.1"
	 xmlns="http://www.w3.org/2000/svg" xmlns:xlink="http://www.w3.org/1999/xlink" xmlns:a="http://ns.adobe.com/AdobeSVGViewerExtensions/3.0/"
	 x="0px" y="0px" width="48px" height="48.0113px" viewBox="0 0 48 48.0113" style="enable-background:new 0 0 48 48.0113;"
	 xml:space="preserve">
<style type="text/css">
	.st0{fill:url(#XMLID_21_);}
	.st1{fill:url(#XMLID_22_);}
</style>
<defs>
</defs>
<linearGradient id="XMLID_21_" gradientUnits="userSpaceOnUse" x1="95.3105" y1="-40.2872" x2="7.3105" y2="39.0462">
	<stop  offset="0" style="stop-color:#1FBF2E"/>
	<stop  offset="1" style="stop-color:#73FF81"/>
</linearGradient>
<path id="XMLID_15_" class="st0" d="M40.9687,7.0308C36.4345,2.4966,30.4059,0,23.9935,0c-6.4119,0-12.4404,2.4966-16.974,7.0308
	C-2.3402,16.391-2.3396,31.6203,7.02,40.98c4.5342,4.5342,10.5627,7.0313,16.9746,7.0313s12.4404-2.4966,16.974-7.0308
	S48,30.4184,48,24.0059S45.5029,11.565,40.9687,7.0308z M40.1887,40.2006c-4.3257,4.3257-10.0773,6.7075-16.1941,6.7075
	S12.1257,44.5257,7.8,40.2c-8.9294-8.9294-8.9294-23.4593-0.0006-32.3893c4.3257-4.3257,10.0773-6.7075,16.1941-6.7075
	c6.1179,0,11.8695,2.3818,16.1952,6.7075c4.3257,4.3263,6.7081,10.0773,6.7081,16.1946S44.5144,35.8743,40.1887,40.2006z
	 M25.9479,23.6143l-7.8174-7.8179c-0.2157-0.2157-0.5643-0.2157-0.78,0c-0.2157,0.2157-0.2157,0.5643,0,0.78l7.4279,7.4279
	l-7.4285,7.429c-0.2157,0.2157-0.2157,0.5643,0,0.78c0.1076,0.1076,0.2488,0.1616,0.39,0.1616c0.1412,0,0.2824-0.0541,0.39-0.1616
	l7.8179-7.819C26.1635,24.1791,26.1635,23.83,25.9479,23.6143z M25.9479,15.7964c-0.2157-0.2157-0.5643-0.2157-0.78,0
	c-0.2157,0.2157-0.2157,0.5643,0,0.78l7.4279,7.4279l-7.4285,7.429c-0.2157,0.2157-0.2157,0.5643,0,0.78
	c0.1076,0.1076,0.2488,0.1616,0.39,0.1616c0.1412,0,0.2824-0.0541,0.39-0.1616l7.8185-7.819c0.2157-0.2157,0.2157-0.5643,0-0.78
	L25.9479,15.7964z"/>
</svg>
