<!-- Generator: Adobe Illustrator 19.0.0, SVG Export Plug-In  -->
<svg version="1.1"
	 xmlns="http://www.w3.org/2000/svg" xmlns:xlink="http://www.w3.org/1999/xlink" xmlns:a="http://ns.adobe.com/AdobeSVGViewerExtensions/3.0/"
	 x="0px" y="0px" width="55.499px" height="81.0313px" viewBox="0 0 55.499 81.0313"
	 style="enable-background:new 0 0 55.499 81.0313;" xml:space="preserve">
<style type="text/css">
	.st0{fill:#FFFFFF;}
</style>
<defs>
</defs>
<path id="XMLID_15_" class="st0" d="M12.217,78.2754C6.2146,70.4828,2.215,60.3905,2.215,51.6172
	c0-14.348,9.7178-25.4768,22.1497-25.4768c6.4567,0,11.5385,1.2594,17.2006,4.2892c0.3182,0.1688,0.6911,0.1676,1.0093-0.0012
	c4.3621-2.3341,7.9244-3.6114,12.9244-4.0783v-2.2142c-4,0.4469-8.2334,1.6068-12.2669,3.5573
	c0.1339-3.0638,0.5682-6.2391,1.3699-9.3098c4.2175,0.2031,7.897-0.5646,10.897-2.1783v-2.5916
	c-3,1.7392-6.0324,2.66-10.1903,2.5549c0.7011-2.1498,1.4999-4.2323,2.5812-6.0911c1.9191-3.299,4.6092-5.9341,7.6092-7.5428V0
	c-4,1.8011-7.2601,5.0284-9.5327,8.9351c-2.1871,3.7598-3.5945,8.1461-4.3462,12.563c-0.8859-2.446-2.0969-4.8791-3.5921-7.0602
	c-3.1612-4.6112-7.5602-8.29-12.5594-8.2369c-0.8174,0.0086-1.1057,0.5854-1.1057,1.1075c0,0.522,0.526,1.1146,1.1084,1.1075
	c3.8908-0.0474,7.8068,3.0051,10.7292,7.2678c2.5123,3.6647,4.2385,8.1846,4.6724,11.9747
	c-5.2948-2.5537-10.4168-3.7378-16.5083-3.7378C10.6102,23.9207,0,36.2493,0,51.6078c0,9.4353,4.1792,19.8738,10.4519,28.0173
	c0.3625,0.4706,0.734,1.4062,1.1105,1.4062h2.9332C13.7101,80.0313,12.9486,79.2252,12.217,78.2754z"/>
</svg>
