<!-- Generator: Adobe Illustrator 19.0.0, SVG Export Plug-In  -->
<svg version="1.1"
	 xmlns="http://www.w3.org/2000/svg" xmlns:xlink="http://www.w3.org/1999/xlink" xmlns:a="http://ns.adobe.com/AdobeSVGViewerExtensions/3.0/"
	 x="0px" y="0px" width="48px" height="48px" viewBox="0 0 48 48" style="enable-background:new 0 0 48 48;" xml:space="preserve">
<style type="text/css">
	.st0{fill:url(#XMLID_21_);}
	.st1{fill:url(#XMLID_22_);}
</style>
<defs>
</defs>
<linearGradient id="XMLID_21_" gradientUnits="userSpaceOnUse" x1="87.3167" y1="-44.5929" x2="-0.6833" y2="50.7405">
	<stop  offset="0" style="stop-color:#FF8C00"/>
	<stop  offset="1" style="stop-color:#FF6236"/>
</linearGradient>
<path id="XMLID_15_" class="st0" d="M40.9708,7.0287C36.4382,2.496,30.4121,0,24.0011,0S11.5624,2.496,7.0298,7.0298
	C2.4966,11.563,0,17.5896,0,24s2.496,12.4376,7.0292,16.9702S17.5896,48,24,48c6.411,0,12.4376-2.496,16.9702-7.0292
	S48,30.411,48,24C48.0005,17.589,45.5034,11.5618,40.9708,7.0287z M40.1904,40.1915c-4.3247,4.3247-10.0745,6.706-16.1904,6.706
	S12.1337,44.5157,7.809,40.191s-6.706-10.075-6.706-16.1904S3.4848,12.1348,7.8096,7.8101
	c4.3253-4.3253,10.0756-6.7066,16.1915-6.7066S35.8674,3.4848,40.191,7.809c4.3247,4.3247,6.7066,10.0756,6.706,16.1915
	C46.897,30.1165,44.5146,35.8668,40.1904,40.1915z M20.8725,15.6323c-0.305,0-0.5515,0.2465-0.5515,0.5515v15.6323
	c0,0.305,0.2465,0.5515,0.5515,0.5515c0.305,0,0.5515-0.2465,0.5515-0.5515V16.1838C21.424,15.8794,21.1775,15.6323,20.8725,15.6323
	z M27.1258,15.6323c-0.305,0-0.5515,0.2465-0.5515,0.5515v15.6323c0,0.305,0.2465,0.5515,0.5515,0.5515
	c0.305,0,0.5515-0.2465,0.5515-0.5515V16.1838C27.6773,15.8794,27.4308,15.6323,27.1258,15.6323z"/>
</svg>
