<!-- Generator: Adobe Illustrator 19.0.0, SVG Export Plug-In  -->
<svg version="1.1"
	 xmlns="http://www.w3.org/2000/svg" xmlns:xlink="http://www.w3.org/1999/xlink" xmlns:a="http://ns.adobe.com/AdobeSVGViewerExtensions/3.0/"
	 x="0px" y="0px" width="57.7873px" height="57.8251px" viewBox="0 0 57.7873 57.8251"
	 style="enable-background:new 0 0 57.7873 57.8251;" xml:space="preserve">
<style type="text/css">
	.st0{fill:#FFFFFF;}
</style>
<defs>
</defs>
<g id="XMLID_15_">
	<path id="XMLID_17_" class="st0" d="M1.7605,37.8701c0-9.6492,3.7966-18.4036,9.958-24.8768l8.0874,8.0828
		c-4.0964,4.4018-6.602,10.3159-6.602,16.7964c0,8.1926,4.0104,14.9526,10.1697,19.9526h3.2323
		c-6.9509-4-11.6415-11.3945-11.6415-19.955c0-6.0005,2.3079-11.4721,6.0793-15.5515l8.1149,8.1102
		c-1.7157,2.0017-2.7508,4.5882-2.7508,7.4248c0,6.3096,5.1338,11.4422,11.4434,11.4422s11.4434-5.1344,11.4434-11.444
		c0-6.3096-5.1339-11.4437-11.4434-11.4437c-2.8432,0-5.4236,1.0555-7.4272,2.7782l-8.1425-8.1149
		c4.0825-3.7872,9.5551-6.1069,15.5696-6.1069c8.5604,0,16.0103,4.6906,19.936,11.6414v-3.2323
		c-4.4828-6.1592-11.7435-10.1696-19.936-10.1696c-6.4874,0-12.3767,2.5253-16.78,6.6295l-8.1149-8.1149
		c6.4746-6.1696,15.2385-9.9579,24.8949-9.9579c7.3733,0,14.2245,2.2122,19.936,6.0026V5.6832C51.9958,2.0846,45.1669,0,37.8513,0
		C27.72,0,18.4466,3.9913,11.651,10.4806L7.7873,6.6844V0.8802C7.7873,0.3926,7.275,0,6.7873,0s-1,0.3926-1,0.8802v4.9448h-4.907
		C0.3926,5.8251,0,6.3374,0,6.825s0.3926,1,0.8802,1H6.657l3.8236,3.8723C3.9995,18.4915,0,27.7217,0,37.8458
		c0,7.3157,2.0847,13.9793,5.6833,19.9793h2.0798C3.9727,51.8251,1.7605,45.2434,1.7605,37.8701z M37.2186,38.4839
		c0.332,0.3209,0.915,0.3026,1.2379-0.0275c0.3229-0.33,0.3281-0.913,0-1.2379l-6.822-6.822
		c1.6794-1.4025,3.8514-2.2281,6.2168-2.2281c5.3582,0,9.6829,4.3247,9.6829,9.6829s-4.3247,9.6829-9.6829,9.6829
		c-5.3582,0-9.6829-4.3248-9.6829-9.6829c0-2.3581,0.8334-4.5121,2.2281-6.1893L37.2186,38.4839z"/>
	<path id="XMLID_16_" class="st0" d="M49.0966,57.8251h3.2323c2.0925-2,3.9355-3.4036,5.4584-5.4961v-3.2322
		C55.7372,52.7266,52.7264,55.8251,49.0966,57.8251z"/>
</g>
</svg>
