<!-- Generator: Adobe Illustrator 19.0.0, SVG Export Plug-In  -->
<svg version="1.1"
	 xmlns="http://www.w3.org/2000/svg" xmlns:xlink="http://www.w3.org/1999/xlink" xmlns:a="http://ns.adobe.com/AdobeSVGViewerExtensions/3.0/"
	 x="0px" y="0px" width="62px" height="84.0376px" viewBox="0 0 62 84.0376" style="enable-background:new 0 0 62 84.0376;"
	 xml:space="preserve">
<style type="text/css">
	.st0{fill:#FFFFFF;}
</style>
<defs>
</defs>
<g id="XMLID_15_">
	<path id="XMLID_24_" class="st0" d="M18.8033,41.5579c0.0083-0.008,0.0164-0.0161,0.0244-0.0244l6.2791-6.2791
		c0.4163-0.4011,0.4286-1.0636,0.0275-1.4799c-0.2114-0.2195-0.5081-0.3359-0.8124-0.3188
		c-0.2733,0.0108-0.5316,0.1282-0.7195,0.327l-5.5269,5.5269l-3.4338-3.4339c-0.4064-0.4154-1.0726-0.4227-1.488-0.0164
		s-0.4227,1.0726-0.0164,1.488l4.1861,4.186C17.7253,41.9489,18.3879,41.9598,18.8033,41.5579z"/>
	<path id="XMLID_21_" class="st0" d="M2,84.0376V18.8372c0-1.1777,1.2932-1.7996,2.4709-1.7996H15v4.9391
		c0,0.5779,0.4046,1.0609,0.9825,1.0609h37.6746c0.5779,0,1.3429-0.4829,1.3429-1.0609v-4.9391h7v-2h-7v-5.619
		c0-0.5779-0.765-1.381-1.3429-1.381H45V6.0502c0-1.9149-1.2625-3.4722-3.1606-4.4804C39.9414,0.5615,37.5067,0,34.7486,0
		s-5.4058,0.5615-7.3038,1.5698C25.5467,2.578,24,4.1353,24,6.0502v1.9874h-8.0175C15.4046,8.0376,15,8.8407,15,9.4186v5.619H4.4709
		C2.1699,15.0376,0,16.5362,0,18.8372v65.2004H2z M17,10.0376h8.4012c0.5779,0,0.5988-0.041,0.5988-0.619V6.0502
		c0-0.858,0.9082-1.8159,2.415-2.6163c1.5068-0.8004,3.8331-1.3409,6.2929-1.3409s4.6342,0.5405,6.141,1.3409
		C42.3556,4.2343,43,5.1922,43,6.0502v3.3685c0,0.5779,0.6605,0.619,1.2385,0.619H53v11H17V10.0376z"/>
	<path id="XMLID_20_" class="st0" d="M13.1287,53.0363c0.0029,0.0029,0.0058,0.0059,0.0087,0.0088l4.1861,4.1861
		c0.4019,0.4154,1.0645,0.4263,1.4799,0.0244c0.0083-0.008,0.0164-0.0162,0.0244-0.0244l6.2791-6.2791
		c0.4163-0.401,0.4286-1.0636,0.0275-1.4799c-0.2114-0.2195-0.5081-0.3359-0.8124-0.3188c-0.2733,0.0107-0.5316,0.1282-0.7195,0.327
		l-5.5269,5.5269l-3.4338-3.4338c-0.404-0.4178-1.0701-0.4291-1.4879-0.0251C12.736,51.9523,12.7247,52.6184,13.1287,53.0363z"/>
	<path id="XMLID_19_" class="st0" d="M36.9128,41.0376h18.8373c0.5798,0,1.0465-0.4202,1.0465-1s-0.4667-1-1.0465-1H36.9128
		c-0.5798,0-1.0465,0.4202-1.0465,1S36.3331,41.0376,36.9128,41.0376z"/>
	<path id="XMLID_18_" class="st0" d="M13.1287,68.7339c0.0029,0.003,0.0058,0.0059,0.0087,0.0089l4.1861,4.186
		c0.4019,0.4155,1.0645,0.4264,1.4799,0.0245c0.0083-0.0081,0.0164-0.0162,0.0244-0.0245l6.2791-6.2791
		c0.4163-0.4011,0.4286-1.0636,0.0275-1.4799c-0.2114-0.2195-0.5081-0.3359-0.8124-0.3188
		c-0.2733,0.0108-0.5316,0.1282-0.7195,0.327l-5.5269,5.5269l-3.4338-3.4338c-0.404-0.4178-1.0701-0.4291-1.4879-0.0251
		C12.736,67.65,12.7247,68.3161,13.1287,68.7339z"/>
	<path id="XMLID_17_" class="st0" d="M36.9128,72.0376h18.8373c0.5798,0,1.0465-0.4202,1.0465-1s-0.4667-1-1.0465-1H36.9128
		c-0.5798,0-1.0465,0.4202-1.0465,1S36.3331,72.0376,36.9128,72.0376z"/>
	<path id="XMLID_16_" class="st0" d="M36.9128,56.0376h18.8373c0.5798,0,1.0465-0.4202,1.0465-1s-0.4667-1-1.0465-1H36.9128
		c-0.5798,0-1.0465,0.4202-1.0465,1S36.3331,56.0376,36.9128,56.0376z"/>
</g>
</svg>
