<!-- Generator: Adobe Illustrator 19.0.0, SVG Export Plug-In  -->
<svg version="1.1"
	 xmlns="http://www.w3.org/2000/svg" xmlns:xlink="http://www.w3.org/1999/xlink" xmlns:a="http://ns.adobe.com/AdobeSVGViewerExtensions/3.0/"
	 x="0px" y="0px" width="48px" height="48.0113px" viewBox="0 0 48 48.0113" style="enable-background:new 0 0 48 48.0113;"
	 xml:space="preserve">
<style type="text/css">
	.st0{fill:url(#XMLID_22_);}
	.st1{fill:url(#XMLID_23_);}
</style>
<defs>
</defs>
<linearGradient id="XMLID_22_" gradientUnits="userSpaceOnUse" x1="75.863" y1="-47.8101" x2="6.5297" y2="48.1899">
	<stop  offset="0" style="stop-color:#FF0031"/>
	<stop  offset="1" style="stop-color:#FF335A"/>
</linearGradient>
<path id="XMLID_15_" class="st0" d="M40.9687,7.0308C36.4345,2.4966,30.4059,0,23.9935,0c-6.4119,0-12.4404,2.4966-16.974,7.0308
	C-2.3402,16.391-2.3396,31.6203,7.02,40.98c4.5342,4.5342,10.5627,7.0313,16.9746,7.0313s12.4404-2.4966,16.974-7.0308
	S48,30.4184,48,24.0059S45.5029,11.565,40.9687,7.0308z M40.1887,40.2006c-4.3257,4.3257-10.0773,6.7075-16.1941,6.7075
	S12.1257,44.5257,7.8,40.2c-8.9294-8.9294-8.9294-23.4593-0.0006-32.3893c4.3257-4.3257,10.0773-6.7075,16.1941-6.7075
	c6.1179,0,11.8695,2.3818,16.1952,6.7075c4.3257,4.3263,6.7081,10.0773,6.7081,16.1946S44.5144,35.8743,40.1887,40.2006z
	 M29.145,17.1986H18.8432c-0.9124,0-1.6548,0.7425-1.6548,1.6548v10.3029c0,0.9124,0.7425,1.6548,1.6548,1.6548h10.3024
	c0.9124,0,1.6548-0.7425,1.6548-1.6548V18.8534C30.7998,17.941,30.0579,17.1986,29.145,17.1986z M29.6966,29.1563
	c0,0.3045-0.2471,0.5516-0.5516,0.5516H18.8432c-0.3045,0-0.5516-0.2471-0.5516-0.5516V18.8534
	c0-0.3045,0.2471-0.5516,0.5516-0.5516h10.3024c0.3045,0,0.5516,0.2471,0.5516,0.5516v10.3029H29.6966z"/>
</svg>
